<svg xmlns="http://www.w3.org/2000/svg" width="228.301" height="62.426" viewBox="0 0 228.301 62.426"><g id="Group_74" data-name="Group 74" transform="translate(5802.8 -11864.186)"><g id="Group_72" data-name="Group 72" transform="translate(-5802.8 11864.186)"><g id="Group_42" data-name="Group 42" transform="translate(0 0)"><g id="Group_41" data-name="Group 41"><g id="Group_40" data-name="Group 40" transform="translate(2.786 23.836)"><path id="Path_1" data-name="Path 1" d="M967.337,362.433a.232.232,0,0,0-.154.062l-3.52,3.034-8.494,7.32-2.464,2.125-1.819,1.567a7.639,7.639,0,0,1-1.531,1.085l-.025.013a7.408,7.408,0,0,1-8.265-.9s-.012-.009-.017-.013a7.688,7.688,0,0,1-1.128-1.172l-1.577-2.02-.008-.009-1.66-2.12a15.744,15.744,0,0,0-3.558-3.333,14.959,14.959,0,0,0-7.141-2.538c-.2-.018-.408-.031-.611-.039l-4.594-.189.22.229L935.7,380.7a11.452,11.452,0,0,0,4.669,2.92c.18.062.362.119.545.167.071.022.146.04.221.057a2.061,2.061,0,0,0,.224.052c.092.026.179.044.271.061a6.18,6.18,0,0,0,.708.119c.108.018.216.03.329.044a.619.619,0,0,0,.083.009c.154.017.3.026.458.035h.021c.187.009.374.013.566.013.088,0,.179,0,.266,0a.88.88,0,0,0,.183,0c.1,0,.2-.009.3-.018.246-.018.487-.04.733-.075a.024.024,0,0,0,.029,0c.117-.013.233-.035.35-.053a3.282,3.282,0,0,0,.366-.07c.121-.027.242-.053.362-.083s.241-.057.362-.092a.239.239,0,0,0,.074-.022c.146-.04.287-.083.429-.132a.408.408,0,0,0,.062-.022c.124-.039.25-.083.374-.132.188-.07.37-.145.55-.228a1.992,1.992,0,0,0,.2-.083,11.616,11.616,0,0,0,3.858-2.9l12.888-14.727,2.331-2.661A.26.26,0,0,0,967.337,362.433ZM943.863,382.64a10.937,10.937,0,0,1-4.349-.9,11.321,11.321,0,0,1-3.708-2.565l-2.622-2.7,0,0-9.759-10.055a16.524,16.524,0,0,1,8.406,5.726l.629.8,3.608,4.611a13.438,13.438,0,0,0,8.54,5.067C944.353,382.631,944.112,382.64,943.863,382.64Z" transform="translate(-920.77 -345.591)" fill="#fff"></path><path id="Path_2" data-name="Path 2" d="M993.815,331.751l-8.386-.268-17.35-.558a1.3,1.3,0,0,0-1.286,1.515v.013l17.965,1.247,8.943.623a.881.881,0,0,0,.915-.87l.033-.755A.891.891,0,0,0,993.815,331.751Z" transform="translate(-943.471 -330.925)" fill="#fff"></path></g><path id="Path_3" data-name="Path 3" d="M969.135,307.983a.85.85,0,0,0-.575-.5.33.33,0,0,0-.1-.022.54.54,0,0,0-.121-.009l-.583.009H919.95q-1.647.02-3.562.044h-.1l.05-.044,11.4-9.827,3.1-2.669s0,0,0,0l1.149-.988a6.653,6.653,0,0,1,.52-.43c0-.009.009-.013.017-.013a7.36,7.36,0,0,1,8.17-.527.043.043,0,0,0,.029.013,7.77,7.77,0,0,1,2.231,1.95l2.022,2.586,1.223,1.563a15.733,15.733,0,0,0,3.571,3.337,14.865,14.865,0,0,0,7.741,2.568l4.594.194L947.221,289.87a.353.353,0,0,0-.054-.057,11.243,11.243,0,0,0-8.09-3.482,11.094,11.094,0,0,0-6.7,2.262,11.73,11.73,0,0,0-1.8,1.669L915.5,307.484a.57.57,0,0,0,.385.95c2.945.046,10.421.166,12.255.212-.05.031-.1.066-.15.1h.017a5.923,5.923,0,0,0-1.015.808.622.622,0,0,1-.05.053h0l-11.259-.4a.4.4,0,0,0-.407.415v.2a.407.407,0,0,0,.369.415l10.527.7a1.525,1.525,0,0,0-.017.193v.035c0,.044,0,.088,0,.131,0,2.068,3.379,3.873,8.411,4.848h0a43.874,43.874,0,0,0,6.38.716c.2.018.387.035.579.057,4.677.456,8.444,1.559,10.266,2.981.05.035.1.075.15.114a2.438,2.438,0,0,1,1.037,1.8c0,1.55-2.181,2.942-5.631,3.882-.387.105-.791.206-1.211.3-.191.049-.387.088-.587.127a39.021,39.021,0,0,1-4.6.65.838.838,0,0,1-.15.013c-1.061.088-2.164.145-3.3.162-.291,0-.583.009-.878.009-.687,0-1.365-.013-2.031-.039a39.23,39.23,0,0,1-8.876-1.269,14.825,14.825,0,0,1-3.558-1.431c-1.207-.716-1.885-1.533-1.885-2.4,0-1.344,1.644-2.569,4.332-3.482,0,0,0,0,.008,0,.216-.07.441-.145.67-.215a20.816,20.816,0,0,0-7.566,2.336c-.046.026-.087.057-.133.083a4.474,4.474,0,0,0-2.035,2.24s0,.009,0,.009a2.558,2.558,0,0,0-.092.43v.009a2.372,2.372,0,0,0-.012.241c0,1.2.982,2.31,2.667,3.232,0,0,.008,0,.008,0a17.208,17.208,0,0,0,3.629,1.4,49.587,49.587,0,0,0,7.354,1.541c.117.018.237.031.353.053.025,0,.046,0,.07.008.716.093,1.457.18,2.206.255.583.057,1.174.11,1.777.158.583.048,1.169.088,1.769.123h0c1.6.088,3.259.136,4.953.136,2.318,0,4.561-.088,6.7-.259,1.173-.092,2.318-.206,3.417-.347.229-.027.458-.053.678-.088,5.689-.76,10.229-2.1,12.688-3.763,0,0,.008,0,.013-.009.029-.022.062-.044.091-.066a3.642,3.642,0,0,0,1.906-2.775c0-2.982-6.221-5.546-15.144-6.679-.05-.009-.1-.018-.15-.022-1.086-.136-2.214-.25-3.371-.343a14.47,14.47,0,0,1-3.829-.825c-.033-.009-.067-.022-.1-.031a9.776,9.776,0,0,1-2.58-1.357s0,0-.008-.009a2.39,2.39,0,0,1-1.057-1.691,3.764,3.764,0,0,1-.013-.426v-.009c.008-.1.021-.189.037-.281a.068.068,0,0,1,.008-.031v-.035a2.064,2.064,0,0,1,.3-.7s0-.009.012-.013a2.141,2.141,0,0,1,.325-.378,1.853,1.853,0,0,1,.171-.153c.034-.022.066-.049.1-.075a2.335,2.335,0,0,1,.237-.158l.013-.008a2.893,2.893,0,0,1,.887-.365s0,0,0,0a2.994,2.994,0,0,1,.766-.083l1.028.026,16.138.4h.07l8.765.219a.757.757,0,0,0,.266-.035.887.887,0,0,0,.537-.488.918.918,0,0,0,.083-.351v-.786A.9.9,0,0,0,969.135,307.983ZM939.01,287.868a11,11,0,0,1,4.349.9,11.454,11.454,0,0,1,3.708,2.565l2.714,2.8,9.671,9.972a16.521,16.521,0,0,1-8.406-5.726l-.583-.742-3.658-4.667a13.425,13.425,0,0,0-8.535-5.072C938.519,287.881,938.764,287.868,939.01,287.868ZM949.472,317.4c6.005.909,9.921,2.384,9.921,4.048,0,1.045-1.527,2.011-4.136,2.811a2.8,2.8,0,0,0,.724-1.792c0-1.954-2.5-3.715-6.509-4.953Zm-8.431-1.651c.183.066.362.128.554.189h0c.341.11.7.219,1.061.32-.728-.1-1.423-.211-2.094-.329h0c-.337-.057-.666-.119-.986-.18-4.661-.913-7.574-2.209-7.574-3.649a1.364,1.364,0,0,1,.383-.887,2.615,2.615,0,0,1,.308-.307,6.49,6.49,0,0,1,1.582-.927c.083-.04.166-.074.254-.11.066-.031.141-.061.212-.088s.116-.049.179-.071q.169-.066.35-.131c.275-.1.566-.194.87-.286a4.353,4.353,0,0,0-.329.452.033.033,0,0,0-.008.018.378.378,0,0,0-.033.057c-.017.03-.033.057-.05.088a2.726,2.726,0,0,0-.179.413,2.41,2.41,0,0,0-.129.742.051.051,0,0,0,0,.026,2.121,2.121,0,0,0,.025.321C935.664,313.09,937.758,314.609,941.041,315.75Z" transform="translate(-915.271 -286.331)" fill="#fff"></path></g></g></g><path id="Path_38" data-name="Path 38" d="M-.132-21.6H11.275v1.373H9.3a3.272,3.272,0,0,0-1.666.293.9.9,0,0,0-.439.787,3.04,3.04,0,0,0,.33,1.117l.146.384L14.8.5l6.307-17.32a3.721,3.721,0,0,0,.183-1.245,2.1,2.1,0,0,0-.6-1.593,2.277,2.277,0,0,0-1.639-.568H17.207V-21.6h10v1.373H26.4a2.677,2.677,0,0,0-1.823.86,7.51,7.51,0,0,0-1.638,2.838L14.564,6.117H13.232L3.664-18.09a3.768,3.768,0,0,0-1.146-1.673,2.986,2.986,0,0,0-1.77-.466h-.88Zm32.9-.311a1.984,1.984,0,0,1,1.446.623,2,2,0,0,1,.622,1.465,1.953,1.953,0,0,1-.6,1.428,1.973,1.973,0,0,1-1.446.6,1.989,1.989,0,0,1-1.456-.613,1.968,1.968,0,0,1-.613-1.437,1.984,1.984,0,0,1,.622-1.446A1.964,1.964,0,0,1,32.769-21.914Zm-4.76,10.235,6.829-.2V2.876a1.093,1.093,0,0,0,.293.861,1.56,1.56,0,0,0,1.062.366h1.941V5.476H28.375V4.1h1.813a1.566,1.566,0,0,0,1.181-.394,1.6,1.6,0,0,0,.375-1.144v-10.8a1.964,1.964,0,0,0-.586-1.547,2.543,2.543,0,0,0-1.739-.522h-1.41Zm28.232,8.7H43.956q.092,3.918,1.465,5.529a5.077,5.077,0,0,0,4.01,1.813q3.589,0,5.767-4.083l1.19.513q-2.673,5.2-7.726,5.2A7.658,7.658,0,0,1,42.867,3.5a8.9,8.9,0,0,1-2.353-6.371A9.7,9.7,0,0,1,42.83-9.62a7.375,7.375,0,0,1,5.7-2.572,7.259,7.259,0,0,1,4.3,1.282,7.733,7.733,0,0,1,2.728,3.68A12.577,12.577,0,0,1,56.241-2.983Zm-12.285-1.3h7.433a1.25,1.25,0,0,0,1.025-.449,2.452,2.452,0,0,0,.366-1.529,4.97,4.97,0,0,0-1.254-3.424,3.841,3.841,0,0,0-2.957-1.41,3.975,3.975,0,0,0-3.232,1.7A8.456,8.456,0,0,0,43.956-4.283ZM63.418-18.673h1.227v6.994h5.548v1.684H64.645v11A3.184,3.184,0,0,0,65.322,3.2a2.2,2.2,0,0,0,1.721.76A2.6,2.6,0,0,0,69.167,2.8a7.05,7.05,0,0,0,1.025-3.808h1.227a7.977,7.977,0,0,1-1.556,5.081A4.749,4.749,0,0,1,66.11,5.732,4.574,4.574,0,0,1,62.787,4.57a4.054,4.054,0,0,1-1.2-3.048V-9.995H58.6v-1.282a4.8,4.8,0,0,0,3.106-1.7A9.655,9.655,0,0,0,63.418-18.673ZM75.557-.987A10.055,10.055,0,0,0,78.166,3.4,5.517,5.517,0,0,0,81.8,4.616a4.756,4.756,0,0,0,3.067-.87A2.722,2.722,0,0,0,85.938,1.54,2.326,2.326,0,0,0,85.544.194a2.365,2.365,0,0,0-1.092-.861A26.133,26.133,0,0,0,80.838-1.5a14.894,14.894,0,0,1-3.888-1.153,4.367,4.367,0,0,1-1.713-1.666,4.53,4.53,0,0,1-.614-2.307,5.257,5.257,0,0,1,1.265-3.424,5.614,5.614,0,0,1,4.565-1.959A6.826,6.826,0,0,1,84.6-10.6l1.21-1.282h.752l.477,6.115H85.81A7.733,7.733,0,0,0,83.627-9.51a5.129,5.129,0,0,0-3.394-1.144A4.059,4.059,0,0,0,77.5-9.8a2.641,2.641,0,0,0-.991,2.078,2.187,2.187,0,0,0,.917,1.794,8.016,8.016,0,0,0,3.522,1.155,26.308,26.308,0,0,1,3.962.864,4.812,4.812,0,0,1,2.328,1.693,4.644,4.644,0,0,1,.825,2.79,4.931,4.931,0,0,1-1.788,3.843,6.614,6.614,0,0,1-4.537,1.574A7.584,7.584,0,0,1,77.007,4.3L75.669,5.842H74.7L74.33-.987Zm16.35-10.692,4.907-.311a27.649,27.649,0,0,1,.531,3.645,9.465,9.465,0,0,1,2.787-2.825,5.928,5.928,0,0,1,3.062-.82,4.53,4.53,0,0,1,2.934.93,5.94,5.94,0,0,1,1.779,3.027,9.306,9.306,0,0,1,2.724-2.972,5.841,5.841,0,0,1,3.272-.985,4.327,4.327,0,0,1,3.51,1.391,7.215,7.215,0,0,1,1.5,4.724V2.638a1.207,1.207,0,0,0,.384,1.044,2.35,2.35,0,0,0,1.52.421h.861V5.476h-8.623V4.1h.861a2.445,2.445,0,0,0,1.538-.367,1.351,1.351,0,0,0,.439-1.1V-5.889a4.287,4.287,0,0,0-.932-2.951,3.122,3.122,0,0,0-2.448-1.045,3.7,3.7,0,0,0-2.082.614,4.119,4.119,0,0,0-1.461,1.751,6.658,6.658,0,0,0-.785,2.768V2.636a1.409,1.409,0,0,0,.4,1.109,1.836,1.836,0,0,0,1.245.357H111V5.476h-8.752V4.1h.989a2.2,2.2,0,0,0,1.391-.366,1.145,1.145,0,0,0,.458-.934V-5.106A5.942,5.942,0,0,0,104.2-8.75a2.876,2.876,0,0,0-2.389-1.135,3.584,3.584,0,0,0-2.984,1.318,6.8,6.8,0,0,0-1.483,4.358V2.638a1.363,1.363,0,0,0,.348,1.08,2.5,2.5,0,0,0,1.538.384h.879V5.476H91.468V4.1h1.3a1.593,1.593,0,0,0,1.126-.366,1.219,1.219,0,0,0,.394-.934V-8.439a1.848,1.848,0,0,0-.476-1.391,3.277,3.277,0,0,0-1.9-.586Zm50.4,15.27.659,1.025A4.064,4.064,0,0,1,140,5.989a3.261,3.261,0,0,1-2.1-.677,5.452,5.452,0,0,1-1.492-2.38,11.009,11.009,0,0,1-3.058,2.444,7.462,7.462,0,0,1-3.167.613,6.157,6.157,0,0,1-4.01-1.135,3.608,3.608,0,0,1-1.373-2.911q0-2.673,3.14-4.44a22.185,22.185,0,0,1,8.358-2.353v-2.6a3.07,3.07,0,0,0-1.117-2.38,4.123,4.123,0,0,0-2.838-.989,5.445,5.445,0,0,0-2.746.659q-.824.494-.824.97a1.79,1.79,0,0,0,.439.861,2.316,2.316,0,0,1,.531,1.3,1.8,1.8,0,0,1-.531,1.346,1.9,1.9,0,0,1-1.391.522,2.059,2.059,0,0,1-1.529-.623,2.174,2.174,0,0,1-.613-1.593,4.184,4.184,0,0,1,2.041-3.314,8.824,8.824,0,0,1,5.355-1.5,7.214,7.214,0,0,1,4.669,1.318,4.072,4.072,0,0,1,1.611,3.241V1.741a3.282,3.282,0,0,0,.4,1.831,1.211,1.211,0,0,0,1.044.6A2.548,2.548,0,0,0,142.311,3.59Zm-6.005-7.232q-4.65.641-6.591,2.087a3.679,3.679,0,0,0-1.446,3.113,3.089,3.089,0,0,0,.751,2.206,2.569,2.569,0,0,0,1.959.8,5.036,5.036,0,0,0,3.744-1.639,5.678,5.678,0,0,0,1.584-4.11Zm8.44-17.961,6.555-.311v18.73l5.578-4.859a1.911,1.911,0,0,0,.8-1.244.783.783,0,0,0-.475-.711,5.706,5.706,0,0,0-2.319-.4v-1.282h9.136V-10.4a6.555,6.555,0,0,0-4.138,1.428l-3.942,3.489,6.4,8.8a2.375,2.375,0,0,0,2.032.787h.952V5.476h-9.374V4.1h.933a3.525,3.525,0,0,0,1.4-.183q.357-.183.357-.439a.877.877,0,0,0-.183-.512l-4.669-6.541-2.488,2.2V2.968a.914.914,0,0,0,.348.787,2.356,2.356,0,0,0,1.373.348h1.19V5.476H145V4.1h1.483a2.017,2.017,0,0,0,1.355-.384,1.3,1.3,0,0,0,.439-1.025V-18.472a1.391,1.391,0,0,0-.531-1.208,3.493,3.493,0,0,0-2.069-.549h-.934Z" transform="translate(-5739.825 11894.184)" fill="#fff"></path><g id="Group_73" data-name="Group 73" transform="translate(-5728.109 11909.155)"><g id="Group_47" data-name="Group 47" transform="translate(0 0)"><path id="Path_13" data-name="Path 13" d="M857.465,444.941l-2.61-7.485H856.1l2.134,6.221,2.124-6.221H861.6l-2.62,7.485Z" transform="translate(-854.855 -437.243)" fill="#fff"></path><path id="Path_14" data-name="Path 14" d="M870.852,438.568a.677.677,0,0,1-.515-.212.706.706,0,0,1,.515-1.2.708.708,0,0,1,.522.208.707.707,0,0,1,0,1A.7.7,0,0,1,870.852,438.568Zm-.566,6.282v-5.362h1.153v5.362Z" transform="translate(-859.421 -437.152)" fill="#fff"></path><path id="Path_15" data-name="Path 15" d="M880.91,445.9a2.655,2.655,0,0,1-1.168-.238,2.291,2.291,0,0,1-.81-.637,2.754,2.754,0,0,1-.475-.9,3.332,3.332,0,0,1-.157-1.011,3.416,3.416,0,0,1,.151-1,2.819,2.819,0,0,1,.466-.9,2.241,2.241,0,0,1,.8-.642,2.576,2.576,0,0,1,1.143-.238,2.418,2.418,0,0,1,1.249.318,2.188,2.188,0,0,1,.849.941,3.46,3.46,0,0,1,.309,1.543v.313h-3.8a1.786,1.786,0,0,0,.415,1.061,1.275,1.275,0,0,0,1.032.445,1.335,1.335,0,0,0,.617-.126,1.163,1.163,0,0,0,.374-.288,1.87,1.87,0,0,0,.243-.4h1.073a3.4,3.4,0,0,1-.238.617,2.3,2.3,0,0,1-.389.526,2,2,0,0,1-.668.44A2.577,2.577,0,0,1,880.91,445.9Zm-1.437-3.258h2.681a1.436,1.436,0,0,0-.421-1.042,1.361,1.361,0,0,0-1.825.036A1.566,1.566,0,0,0,879.474,442.647Z" transform="translate(-861.862 -438.105)" fill="#fff"></path><path id="Path_16" data-name="Path 16" d="M893.547,445.379a1.974,1.974,0,0,1-1.022-.232,1.333,1.333,0,0,1-.55-.623,2.117,2.117,0,0,1-.168-.845v-2.833h-.94v-.93h.94v-1.335h1.153v1.335h1.254v.93h-1.254v2.812q0,.759.84.759a3.689,3.689,0,0,0,.577-.06v.941A5.4,5.4,0,0,1,893.547,445.379Z" transform="translate(-865.618 -437.579)" fill="#fff"></path><path id="Path_17" data-name="Path 17" d="M901.889,445.8v-5.362h1.153v.779h.061a1.922,1.922,0,0,1,.243-.348,1.54,1.54,0,0,1,.481-.369,1.675,1.675,0,0,1,.784-.162,1.749,1.749,0,0,1,1,.273,1.723,1.723,0,0,1,.612.728,2.39,2.39,0,0,1,.207,1V445.8h-1.153v-3.338a1.27,1.27,0,0,0-.268-.82.96.96,0,0,0-.794-.334,1.043,1.043,0,0,0-.673.207,1.214,1.214,0,0,0-.379.536,2.02,2.02,0,0,0-.121.7V445.8Z" transform="translate(-868.912 -438.105)" fill="#fff"></path><path id="Path_18" data-name="Path 18" d="M916.849,440.341a1.956,1.956,0,0,1,.846.162,1.838,1.838,0,0,1,.541.374,2.238,2.238,0,0,1,.293.364h.06v-.8h1.153V445.8h-1.153V445h-.06a2.239,2.239,0,0,1-.293.364,1.824,1.824,0,0,1-.541.374,1.956,1.956,0,0,1-.846.162,2.174,2.174,0,0,1-1.81-.875,2.762,2.762,0,0,1-.45-.9,3.562,3.562,0,0,1,0-2.023,2.762,2.762,0,0,1,.45-.9,2.174,2.174,0,0,1,1.81-.875Zm.254.961a1.283,1.283,0,0,0-.83.268,1.653,1.653,0,0,0-.5.683,2.352,2.352,0,0,0,0,1.74,1.647,1.647,0,0,0,.5.682,1.283,1.283,0,0,0,.83.268,1.261,1.261,0,0,0,.824-.268,1.663,1.663,0,0,0,.5-.682,2.351,2.351,0,0,0,0-1.74,1.67,1.67,0,0,0-.5-.683A1.261,1.261,0,0,0,917.1,441.3Z" transform="translate(-872.664 -438.105)" fill="#fff"></path><path id="Path_19" data-name="Path 19" d="M928.248,445.8v-5.362H929.4v.759h.04a2.247,2.247,0,0,1,.269-.364,1.509,1.509,0,0,1,.47-.349,1.9,1.9,0,0,1,1.73.137,1.713,1.713,0,0,1,.587.748h.02a2.216,2.216,0,0,1,.617-.718,1.7,1.7,0,0,1,1.072-.313,1.667,1.667,0,0,1,.961.268,1.647,1.647,0,0,1,.592.718,2.5,2.5,0,0,1,.2,1.017V445.8H934.8v-3.3a1.386,1.386,0,0,0-.254-.86.88.88,0,0,0-.748-.334.939.939,0,0,0-.652.222,1.272,1.272,0,0,0-.36.552,2.047,2.047,0,0,0-.111.663V445.8h-1.153v-3.3a1.377,1.377,0,0,0-.254-.86.879.879,0,0,0-.748-.334.94.94,0,0,0-.652.222,1.277,1.277,0,0,0-.36.552,2.047,2.047,0,0,0-.111.663V445.8Z" transform="translate(-876.79 -438.105)" fill="#fff"></path><path id="Path_20" data-name="Path 20" d="M947.926,445.9a2.655,2.655,0,0,1-1.169-.238,2.3,2.3,0,0,1-.81-.637,2.773,2.773,0,0,1-.475-.9,3.335,3.335,0,0,1-.156-1.011,3.416,3.416,0,0,1,.151-1,2.792,2.792,0,0,1,.466-.9,2.232,2.232,0,0,1,.8-.642,2.575,2.575,0,0,1,1.143-.238,2.418,2.418,0,0,1,1.249.318,2.188,2.188,0,0,1,.849.941,3.459,3.459,0,0,1,.309,1.543v.313h-3.8a1.778,1.778,0,0,0,.415,1.061,1.273,1.273,0,0,0,1.032.445,1.336,1.336,0,0,0,.617-.126,1.169,1.169,0,0,0,.374-.288,1.884,1.884,0,0,0,.242-.4h1.073a3.356,3.356,0,0,1-.238.617,2.278,2.278,0,0,1-.388.526,2.013,2.013,0,0,1-.669.44A2.573,2.573,0,0,1,947.926,445.9Zm-1.437-3.258h2.681a1.439,1.439,0,0,0-.42-1.042,1.3,1.3,0,0,0-.885-.334,1.284,1.284,0,0,0-.94.369A1.565,1.565,0,0,0,946.489,442.647Z" transform="translate(-881.891 -438.105)" fill="#fff"></path><path id="Path_21" data-name="Path 21" d="M960.493,445.9a2.662,2.662,0,0,1-1.047-.177,1.887,1.887,0,0,1-1.012-.956,2.667,2.667,0,0,1-.177-.617h1.123a1.383,1.383,0,0,0,.182.415.961.961,0,0,0,.344.288,1.293,1.293,0,0,0,.617.126.985.985,0,0,0,.693-.212.65.65,0,0,0,.227-.485.5.5,0,0,0-.191-.415,1.384,1.384,0,0,0-.547-.233l-.728-.161a3.936,3.936,0,0,1-.794-.278,1.62,1.62,0,0,1-.6-.475,1.239,1.239,0,0,1-.228-.774,1.458,1.458,0,0,1,.527-1.153,2.086,2.086,0,0,1,1.416-.455,2.444,2.444,0,0,1,.956.162,1.746,1.746,0,0,1,.6.4,1.876,1.876,0,0,1,.334.475,2.711,2.711,0,0,1,.182.551h-1.083a1.086,1.086,0,0,0-.161-.339.887.887,0,0,0-.3-.243,1.12,1.12,0,0,0-.531-.106.9.9,0,0,0-.658.2.608.608,0,0,0-.2.435.437.437,0,0,0,.2.379,1.48,1.48,0,0,0,.521.208l.718.162a2.9,2.9,0,0,1,1.184.531,1.282,1.282,0,0,1,.465,1.067,1.565,1.565,0,0,1-.237.845,1.688,1.688,0,0,1-.693.607A2.453,2.453,0,0,1,960.493,445.9Z" transform="translate(-885.759 -438.105)" fill="#fff"></path><path id="Path_22" data-name="Path 22" d="M972.67,445.9a2.654,2.654,0,0,1-1.168-.238,2.3,2.3,0,0,1-.81-.637,2.77,2.77,0,0,1-.475-.9,3.329,3.329,0,0,1-.156-1.011,3.412,3.412,0,0,1,.151-1,2.792,2.792,0,0,1,.465-.9,2.232,2.232,0,0,1,.8-.642,2.576,2.576,0,0,1,1.144-.238,2.417,2.417,0,0,1,1.249.318,2.188,2.188,0,0,1,.849.941,3.459,3.459,0,0,1,.309,1.543v.313h-3.8a1.779,1.779,0,0,0,.415,1.061,1.273,1.273,0,0,0,1.031.445,1.332,1.332,0,0,0,.617-.126,1.153,1.153,0,0,0,.374-.288,1.86,1.86,0,0,0,.243-.4h1.073a3.369,3.369,0,0,1-.238.617,2.285,2.285,0,0,1-.389.526,2,2,0,0,1-.668.44A2.576,2.576,0,0,1,972.67,445.9Zm-1.437-3.258h2.681a1.439,1.439,0,0,0-.42-1.042,1.3,1.3,0,0,0-.886-.334,1.284,1.284,0,0,0-.94.369A1.566,1.566,0,0,0,971.233,442.647Z" transform="translate(-889.286 -438.105)" fill="#fff"></path><path id="Path_23" data-name="Path 23" d="M1005.856,445.948a1.613,1.613,0,0,1-1.264-.506,1.933,1.933,0,0,1-.456-1.345v-3.612h1.153v3.47a1.039,1.039,0,0,0,.259.754.926.926,0,0,0,.7.268,1.045,1.045,0,0,0,.7-.222,1.253,1.253,0,0,0,.38-.572,2.281,2.281,0,0,0,.116-.723v-2.974h1.153v5.362h-1.153v-.769h-.06a2.072,2.072,0,0,1-.259.36,1.5,1.5,0,0,1-.484.359A1.779,1.779,0,0,1,1005.856,445.948Z" transform="translate(-899.471 -438.148)" fill="#fff"></path><path id="Path_24" data-name="Path 24" d="M1017.45,438.568a.678.678,0,0,1-.515-.212.706.706,0,0,1,.515-1.2.706.706,0,0,1,.521.208.706.706,0,0,1,0,1A.7.7,0,0,1,1017.45,438.568Zm-.567,6.282v-5.362h1.154v5.362Z" transform="translate(-903.235 -437.152)" fill="#fff"></path><path id="Path_25" data-name="Path 25" d="M1027.018,445.9a2.658,2.658,0,0,1-1.047-.177,1.913,1.913,0,0,1-.652-.435,1.875,1.875,0,0,1-.36-.521,2.591,2.591,0,0,1-.177-.617h1.123a1.4,1.4,0,0,0,.182.415.953.953,0,0,0,.344.288,1.291,1.291,0,0,0,.617.126.987.987,0,0,0,.693-.212.649.649,0,0,0,.227-.485.5.5,0,0,0-.192-.415,1.381,1.381,0,0,0-.546-.233l-.729-.161a3.97,3.97,0,0,1-.794-.278,1.623,1.623,0,0,1-.6-.475,1.243,1.243,0,0,1-.227-.774,1.46,1.46,0,0,1,.526-1.153,2.088,2.088,0,0,1,1.416-.455,2.443,2.443,0,0,1,.956.162,1.748,1.748,0,0,1,.6.4,1.851,1.851,0,0,1,.334.475,2.714,2.714,0,0,1,.182.551h-1.083a1.1,1.1,0,0,0-.162-.339.884.884,0,0,0-.3-.243,1.122,1.122,0,0,0-.531-.106.9.9,0,0,0-.657.2.608.608,0,0,0-.2.435.435.435,0,0,0,.2.379,1.47,1.47,0,0,0,.521.208l.718.162a2.9,2.9,0,0,1,1.184.531,1.282,1.282,0,0,1,.465,1.067,1.559,1.559,0,0,1-.238.845,1.688,1.688,0,0,1-.693.607A2.45,2.45,0,0,1,1027.018,445.9Z" transform="translate(-905.642 -438.105)" fill="#fff"></path><path id="Path_26" data-name="Path 26" d="M1037.547,438.568a.677.677,0,0,1-.515-.212.706.706,0,0,1,.515-1.2.706.706,0,0,1,.521.208.706.706,0,0,1,0,1A.7.7,0,0,1,1037.547,438.568Zm-.567,6.282v-5.362h1.153v5.362Z" transform="translate(-909.242 -437.152)" fill="#fff"></path><path id="Path_27" data-name="Path 27" d="M1045.124,445.8v-5.362h1.153v.779h.061a1.9,1.9,0,0,1,.244-.348,1.53,1.53,0,0,1,.48-.369,1.675,1.675,0,0,1,.784-.162,1.747,1.747,0,0,1,1,.273,1.724,1.724,0,0,1,.612.728,2.391,2.391,0,0,1,.207,1V445.8h-1.153v-3.338a1.27,1.27,0,0,0-.268-.82.96.96,0,0,0-.795-.334,1.042,1.042,0,0,0-.673.207,1.219,1.219,0,0,0-.379.536,2.026,2.026,0,0,0-.121.7V445.8Z" transform="translate(-911.721 -438.105)" fill="#fff"></path><path id="Path_28" data-name="Path 28" d="M1060.287,445.9a2.649,2.649,0,0,1-1.168-.238,2.291,2.291,0,0,1-.81-.637,2.76,2.76,0,0,1-.476-.9,3.337,3.337,0,0,1-.156-1.011,3.412,3.412,0,0,1,.151-1,2.8,2.8,0,0,1,.466-.9,2.237,2.237,0,0,1,.8-.642,2.579,2.579,0,0,1,1.144-.238,2.416,2.416,0,0,1,1.249.318,2.19,2.19,0,0,1,.85.941,3.46,3.46,0,0,1,.308,1.543v.313h-3.8a1.78,1.78,0,0,0,.415,1.061,1.273,1.273,0,0,0,1.032.445,1.336,1.336,0,0,0,.617-.126,1.168,1.168,0,0,0,.374-.288,1.892,1.892,0,0,0,.243-.4h1.072a3.415,3.415,0,0,1-.238.617,2.3,2.3,0,0,1-.389.526,2,2,0,0,1-.668.44A2.58,2.58,0,0,1,1060.287,445.9Zm-1.437-3.258h2.681a1.436,1.436,0,0,0-.42-1.042,1.362,1.362,0,0,0-1.826.036A1.567,1.567,0,0,0,1058.851,442.647Z" transform="translate(-915.473 -438.105)" fill="#fff"></path></g><g id="Group_48" data-name="Group 48" transform="translate(93.967 0.264)"><path id="Path_29" data-name="Path 29" d="M992.494,445.251a3.559,3.559,0,0,1-1.58-.33,3.294,3.294,0,0,1-1.127-.884,3.871,3.871,0,0,1-.681-1.24,4.408,4.408,0,0,1-.229-1.407,4.452,4.452,0,0,1,.229-1.412,3.876,3.876,0,0,1,.681-1.245,3.254,3.254,0,0,1,1.127-.879,3.608,3.608,0,0,1,1.58-.325,3.767,3.767,0,0,1,1.275.193,2.969,2.969,0,0,1,.894.493,2.874,2.874,0,0,1,.579.635,2.988,2.988,0,0,1,.325.64,5.759,5.759,0,0,1,.188.681h-1.189a2.387,2.387,0,0,0-.188-.548,1.809,1.809,0,0,0-.345-.463,1.885,1.885,0,0,0-.6-.386,2.384,2.384,0,0,0-.929-.157,2.189,2.189,0,0,0-1.81.864,2.724,2.724,0,0,0-.451.894,3.565,3.565,0,0,0-.147,1.016,3.51,3.51,0,0,0,.147,1.011,2.8,2.8,0,0,0,.451.895,2.227,2.227,0,0,0,.757.635,2.254,2.254,0,0,0,1.052.234,2.383,2.383,0,0,0,.929-.158,1.834,1.834,0,0,0,.6-.391,1.875,1.875,0,0,0,.345-.468,2.374,2.374,0,0,0,.188-.548h1.189a5.336,5.336,0,0,1-.188.686,3.155,3.155,0,0,1-.325.64,2.816,2.816,0,0,1-.579.64,2.954,2.954,0,0,1-.894.493A3.751,3.751,0,0,1,992.494,445.251Z" transform="translate(-988.877 -437.529)" fill="#fff"></path></g></g></g></svg>